<?xml version="1.0" encoding="utf-8"?>
<!-- Generator: Adobe Illustrator 24.1.1, SVG Export Plug-In . SVG Version: 6.00 Build 0)  -->
<svg version="1.1" id="Layer_1" xmlns="http://www.w3.org/2000/svg" xmlns:xlink="http://www.w3.org/1999/xlink" x="0px" y="0px"
	 viewBox="0 0 600 600" style="enable-background:new 0 0 600 600;" xml:space="preserve">
<style type="text/css">
	.st0{display:none;}
	.st1{display:inline;fill:#093D2C;}
	.st2{fill:#FFFFFF;}
	.st3{opacity:0.28;fill:#FFFFFF;enable-background:new    ;}
</style>
<g id="Layer_1_1_" class="st0">
	<image style="display:inline;overflow:visible;enable-background:new    ;" width="600" height="600" xlink:href="D6ED8C70.jpeg" >
	</image>
</g>
<g id="Layer_3" class="st0">
	<rect class="st1" width="600" height="600"/>
</g>
<g id="Layer_2_1_">
	<path class="st2" d="M327.5,218.8c0,0,5.8-6.6,14.9-7.2c7.1-0.5,19.2-1.4,24.1-8.4c0,0-5.1-10.2-21.7-7.4S326.1,216.3,327.5,218.8z
		"/>
	<path class="st2" d="M328.3,223.6c0,0-4.5,12,7.9,10.5c0,0,10.3-2.2,13.8-7s0.1-9-3.9-10.2S329.1,219,328.3,223.6z"/>
	<path class="st2" d="M370.1,206.2L370.1,206.2c-0.9-0.9-2.5-0.9-3.3,0.2c-3.3,4.4-9.9,6.7-12.5,7.4c-0.6,0.2-1.2,0.1-1.7-0.2
		c-4.7-2.9-13.8-0.4-15.2,0c-0.1,0-0.3,0.1-0.4,0.2c-1.9,1-17.8,9.7-14.4,18c3.6,8.8,9.9,7.3,9.9,7.3s9.5-1,18.2-6.9
		c6.4-4.4,6.7-8.6,6.5-10.5c-0.1-0.7,0.2-1.5,0.8-2l12-10.3C370.9,208.6,371,207.1,370.1,206.2z M351.2,226.9
		c-3,3.3-6.6,5.3-10.6,6.9c-3.1,1.2-7,2.4-10.5,1.5c-6.6-1.6-6-9.5-2-13.3c3.9-3.7,10.5-6.5,15.8-6.4c0,0,0.1,0,0.1,0
		c0.7,0,1.4-0.2,2.1-0.2c2.2,0,5.1,0.7,6,2C354.5,220.7,353.6,224.3,351.2,226.9z"/>
	<path class="st2" d="M460,328.7c0,0-0.4,1.2-5.5-17c-5-18.3-13.7-31.7-14.7-31.8s-1.4-15.7-1.4-15.7c0.4-37.4-15.4-35.5-17-30.9
		l-35.3-0.2c-2.3,5.5-6.1,7.3-7.3,7.8c2-1.1,5.4-7.9,5.4-7.9c-3.2-0.1-12.1-23.7-12.1-23.7l-13.7,11c0.5,3.2-0.5,5.9-2.9,10.1
		c-2.3,4.3-16.1,8.7-16.1,8.7c8.1,10.9,16.4,4.3,16.4,4.3c12.7-7.7,11.9-12.3,11.9-12.3s2.1-2.5,1.5,2.5s-9.9,9.6-9.9,9.6
		s1.9,1,1.7,2.8s-7.8,3.7-7.8,3.7c-8.5-0.1-13.7,4.3-13.7,4.3c-1.3-0.7-17.4,0.4-19.6,1.6c-2.1,1.2-15.4,2-15.4,2
		c0.4-0.9-5.9-18-7.5-18.4c-1.5-0.4-4.8-15.8-4.8-15.8c4.1-8.1,2.5-16.8,2.5-16.8s-3.5-2.9-5.2-9.1c-1.7-6.2-3.9-5.2-3.9-5.2
		c-3.7,2.3-1,7.9,0.3,9c1.2,1.2,1.3,4.3,1.3,4.3c-1.4,0.8-2.3,1-2.3,1c2.8,5.1-2.2,5.7-2.2,5.7c1,4.1-2.6,5-2.6,5
		c0.4,4.4-2.8,3.9-2.8,3.9l-0.9,1l-0.7,3.5c4.4,3.1,6.6,14.3,6.6,14.3c-0.1,16.6,9.7,32.9,9.7,32.9s15.2,4.8,20.9,6.3
		c5.7,1.6,27.7,1.2,27.7,1.2l1.1-1.4c-1.4-1.3-8.7-1-9.9-1.2c-1.2-0.3,0-1.7,0-1.7c9.7-1.2,13,2.8,11.5,3.2
		c-1.5,0.5-1.5,1.9-1.5,1.9s5.7,0.5,4.5,1.8s-6.1-0.5-6.1-0.5c7.8,15.4,34.2,27.2,35.8,27.9c1.6,0.8,0.8,3.2,0.8,3.2
		s-7.8,12.7-7,13.9c0.8,1.2,4.7,2.5,4.7,2.5c2.8-5.6,14.5-16.8,15.8-17.1s9.7,5.7,9.5,7.7s-10.2,10.8-10.2,10.8
		c3.8,3.2,8.9,2.1,8.9,2.1c6.9-10.8,5.3-33.3,5.9-34.4s1,1,1,1c1.9,14.1-5.2,34.3-5.2,34.3c4.6,3.7,16.1,2.1,16.1,2.1
		c3.5-4.3,3.9-11.9,3.9-11.9c-1.1,1.9-6.3,1.5-8.8,1.6c-2.4,0.1-8.2-2.7-2.5-2.1c5.7,0.6,9.9-0.8,12.6-2.6s1.2-10.7,0.5-9.3
		s-7.1,2.3-9.1,1.6s0-1.7,0-1.7c12.2,1.3,12.1-12.4,12.1-12.4c5.9-29.2-6.5-39.6-6.5-39.6c-5,5-10.8,3.6-10.8,3.6s2.1-1,7.3-4.1
		c5.2-3.1,2.3-7,2.3-7s-4.5-6.2-0.6-4.4c3.9,1.8,4,9.5,4,9.5c10,9.4,7.8,36.9,6.1,42.9c-1.7,6,17.8,29.2,19.8,32.9
		c2,3.7,0.7,6,0.7,6s-7.2,4.7-6.3,9.9c0.9,5.2-3,7.5-2.5,8.9c0.4,1.5,0.7,1.5,3.1,1.4s6.5-8.8,6.5-8.8c1.6,5.5-4.5,10.3-5.4,10.7
		c-0.9,0.3-1.7,2.1-1.7,2.1s-0.3,3.7,1.3,3.7s6.6-6.7,6.6-6.7c0,1.6-3.5,5.5-3.5,5.5s1.2,3,2.9,0.6c1.7-2.3,3.9-5.9,3.9-5.9
		c-0.3,2.5-2.5,4-2.3,4.9s1.7,0,1.7,0s7-3.1,8.5-12.5C461.5,343.7,460,328.7,460,328.7z M351.4,238.3c-1,0.4-2,1.1-2.9,1.6
		c-1.1,0.6-2.3,1-3.5,0.9c-0.4,0-0.8-0.3-0.8-0.8c0-0.4,0.4-0.8,0.8-0.8c1.1,0.1,2-0.3,3-0.8c1-0.6,2-1.2,3-1.6
		c0.4-0.2,0.8,0.2,0.9,0.5C352,237.8,351.8,238.1,351.4,238.3z M362.3,249.8c-0.2-0.3-0.1-0.9,0.3-1c1.2-0.6,2.4-1.1,3.6-1.3
		c1.3-0.2,2.6-0.1,4,0.1c0.4,0.1,0.6,0.6,0.5,0.9c-0.1,0.4-0.5,0.6-0.9,0.5c-1.1-0.2-2.2-0.3-3.3-0.1c-1.1,0.2-2.2,0.6-3.2,1.1
		C362.9,250.3,362.5,250.2,362.3,249.8z M376.9,280.5c-4.1-2.7-7.8-5.9-11.9-8.6c-0.8-0.5,0-1.8,0.8-1.3c3.9,2.6,7.5,5.7,11.4,8.3
		c0.5,0.3,1,0.8,1.6,1c0,0,0,0,0.1-0.1c4.1-2.2,8.3-4.3,11.8-7.3c0.9-0.8,1.9-1.8,3-2.2c1-0.4,2.1,0.5,1.8,1.6
		c-0.3,1.1-1.6,1.9-2.5,2.4c-1.6,1-3.2,2-4.9,3c-2,1.2-4.1,2.3-6.2,3.4c-0.8,0.4-1.6,0.9-2.5,0.8C378.4,281.6,377.7,281,376.9,280.5
		z M382.7,306.7c-0.7,0.7-1.8-0.4-1.1-1.1c2.9-2.7,5.9-5.4,8.5-8.3c0.6-0.7,1.7,0.3,1.1,1.1C388.6,301.4,385.6,304,382.7,306.7z
		 M397.5,313c-0.1,0.4-0.5,0.6-0.9,0.5c-1.5-0.2-3-0.5-4.4-1.3c-1.4-0.8-2.3-2.1-3-3.5c-0.2-0.4-0.1-0.8,0.3-1
		c0.3-0.2,0.9-0.1,1,0.3c0.2,0.4,0.4,0.8,0.6,1.1c0.2,0.3,0.4,0.6,0.6,0.8c0.5,0.5,0.8,0.8,1.3,1.1c0.5,0.3,1,0.5,1.7,0.6
		c0.8,0.2,1.5,0.3,2.3,0.5C397.4,312.1,397.6,312.6,397.5,313z M404.9,288.4c-0.3,0.9-1.8,0.5-1.5-0.4c0.8-2.2,0.4-4.8,0.4-7.1
		c0-2.1-0.2-4.2-0.5-6.3c-0.7-4.3-2.2-8.4-5-11.8c-0.6-0.7,0.4-1.8,1.1-1.1c3,3.5,4.7,7.9,5.4,12.4c0.4,2.3,0.5,4.5,0.6,6.8
		C405.4,283.5,405.7,286.1,404.9,288.4z M437.6,291c-0.1,0.4-0.5,0.6-0.9,0.5c0.1,0,0,0-0.1,0c0,0-0.1,0-0.1,0c-0.1,0-0.2,0-0.3,0
		s-0.2,0-0.3,0c0,0-0.1,0-0.1,0c-0.3,0.1-0.7,0.1-1,0.3c0,0-0.1,0-0.1,0c0,0,0,0-0.1,0c-0.1,0-0.2,0.1-0.2,0.1
		c-0.2,0.1-0.3,0.1-0.5,0.2c-0.3,0.2-0.6,0.3-1,0.5c-0.4,0.2-0.8,0.1-1-0.3c-0.2-0.3-0.1-0.9,0.3-1c0.8-0.4,1.5-0.8,2.2-1.1
		c0.9-0.3,1.7-0.4,2.6-0.3C437.5,290.2,437.7,290.7,437.6,291z"/>
	<path class="st3" d="M378.7,240.9c-0.2,0.1-0.3,0.1-0.3,0.1C378.5,241,378.6,241,378.7,240.9z"/>
	<path class="st2" d="M287.1,190.9c0,0,2.5,1.7,2.9,3.8l16.4-31c0,0,0.8-2.4-0.5-3.6c-1.3-1.2-3.5,3.2-3.5,3.2L287.1,190.9z"/>
	<path class="st2" d="M271,216.6l4.2,3c0,0,2.2,0.8,3.2,0c1-0.8-0.2-2-0.5-2.3s-6.3-3.8-6.3-3.8s-0.5-2.1,1-1.6c1.5,0.6,6.2,4,6.2,4
		s3.6,1.6,3.3-3.5l-8.7-3.9c0,0-0.2-1.9,1.7-1.1s5.6,3,5.6,3s5,2.6,3.2-3c0,0-6.3-3.6-8.5-4c0,0-0.7-1.8,1.2-1.8s5.7,3,5.7,3
		s6.1,2.5,2.8-2.5c-3.4-5-7.7-6.3-7.7-6.3s-2.5-0.3-3.4,2.4s-5.4,10.5-5.8,10.6s-0.8,8.3,0,9.4c0.8,1.1,3.1,3.1,3.1,3.1l1.6-1.8
		c0,0-2.6-1.9-2.6-2.4C270.2,216.6,271,216.6,271,216.6z"/>
	<path class="st2" d="M272.9,221.4h2.9c0,0-1,3-0.8,3.4s-58.7,111.5-58.7,111.5s-2.7-1.1-3.8-3L272.9,221.4z"/>
	<path class="st2" d="M361,338.3l-1.9-2.3l8.7-7.5c0,0,5.7,2.8,6.5,4.1c0.9,1.3,15.8-16.8,15.8-16.8s5.6,3.2,5.8,4.7
		c0.2,1.5-17.4,15.7-17.4,15.7l3.4,5c0,0,0.7,3-0.5,3.4s-9.4,6.8-9.4,6.8s-2.5-1.8-2.3-2.5c0.2-0.8,5.5-5.3,5.5-5.3l-8.5-9.6
		L361,338.3z"/>
	<path class="st2" d="M381.9,338.5l5.3-5.2c0,0,20.5,9.4,28.3,6.5c0,0-1.9,27.2-10.5,35c0,0-7.9-3.9-11.6-8.8
		c-3.7-4.9-14.5-13.4-20.1-12.5c0,0,11.6-8.1,11.2-9.9S383.6,340.3,381.9,338.5z"/>
	<path class="st2" d="M366.1,335.9c0,0-18.6,14.8-20.5,19.2c-1.9,4.3-2.9,8.6-2.9,8.6s9.5-1.3,14.5-5s16.1-14.8,16.1-14.8
		L366.1,335.9z"/>
	<path class="st2" d="M352.8,371.2c0,0,6.5-14.6,11.6-16c5-1.4,16.1,1.9,19,4.5c2.9,2.6,9.8,9.7,9.8,10.4s9.9,6.6,10.6,6.3
		s-14,17.6-14.8,17.9s0.3-15.9-3-21.5C382.1,366.6,365.7,358.8,352.8,371.2z"/>
	<path class="st2" d="M186.2,384l3.3,3.6l-13.8,27.6c0,0-3.3,0.1-4.4-2.9C170.2,409.2,186.2,384,186.2,384z"/>
	<path class="st2" d="M356.1,370.2c0,0,7.1-5.9,16.5-2.8c0,0-6.1,3.7-7,5.6C365.7,373.1,362.3,370.6,356.1,370.2z"/>
	<path class="st2" d="M375.3,388.8c0,0-1.5-8-5.8-10.8s-7-6.2-14.4-6.5l-1,1.5c0,0,16.5,6.9,18.1,15.7L375.3,388.8L375.3,388.8z"/>
	<path class="st2" d="M385.8,377.3c-1.2-9.5-11.3-9.9-11.3-9.9c-4.9,2.4-7.3,7.2-7.3,7.2c9.4,4.3,10.2,15.5,10.2,15.5
		s-6,1.9-6.3,0.3s-1.8-4.1-6.5-9.2s-10.3-6.2-19.1-6c-8.8,0.2-8.1,15-8.1,15s5.7,10.3,16.5,12.7s17.1-5.9,17.1-5.9
		c6.1,0.8,11.4-1.3,11.4-1.3s0.8,1.2,0.3,2.2c-0.5,0.9-4.6,0.9-4.6,0.9c0.1,3.3-6.7,10.5-10.7,12.3c-4,1.8-7.5,6-7.5,6
		c6.4,8.6,22,15.2,22,15.2c-1.3-1,1.9-24.3,1.9-24.3S387.1,386.9,385.8,377.3z M360.1,399.9c-3.5,1.1-7.4,0.1-10.5-1.7
		c-3.4-2-6.1-5.3-7.4-9c-0.5-1.3-0.6-2.6-0.4-3.9c-0.1-1.2,0.2-2.3,1.2-3.1c0.4-0.6,1-1.2,1.6-1.6c3-2,7.1-1.3,10.1,0.4
		c1.9,1.1,3.4,2.6,4.8,4.1c2.7,1.8,4.7,4.6,5.1,8C365,396.4,363.2,399,360.1,399.9z"/>
	<path class="st2" d="M352.3,381.9c0,0-5-2.3-7.8,1.7s2.8,10.5,2.8,10.5s6.3,6,10.6,4.2s4.9-3.6,4.8-5.8
		C362.7,390.3,352.3,381.9,352.3,381.9z"/>
	<path class="st2" d="M371,398.6h6.4c0,0-6.1,9.9-14.7,12.5c0,0-7.1,4-7.8,7.5c0,0,12.9,8.4,18.2,11.8s19.1,10.2,19.1,10.2
		s4.3-11.2,4-12.9c-0.3-1.8,19.1-44.5,19.1-44.5s1.6-6.1,3.1-7.3s0-3.3,0-3.3s3.6-2.7,3.6,1.5s-1.7,6-1.7,6l-0.7,1
		c0,0,1.1,5.7,0.5,6.7c-0.6,0.9,1.3,1.1,1.9,0.4c0.5-0.7-1.5-6.4-1-7.1s8.8-8.2,8.2-10.4c-0.6-2.2,3.7,8.9,1.3,15.6
		s-9.2,10.1-9.2,10.1s-6.9,7.5-6.6,15.3s-8.7,38.1-8.7,38.1s-2.3,8.3-16.2,5.2s-35.6-11.4-41-10.5c0,0,0.9-3,7.2-2.5
		c0,0,1.5-1.1,0-1.3c-1.5-0.2-8.7,0.7-10.3,3.2c0,0-11.4-12.1-24.2-11.6c0,0,9-5.4,7.7-12.9s-11.1-15-11.1-15s-13.5-2.5-13-16.9
		c0,0,2-0.4,3.1,1.2c1.1,1.7,2.4,5.6,1.7,6.6s1,1,1,1s2.7-6.6-3.3-10.8s-34.1-29.5-37.2-41.1c0,0-13.9-20.2-15.2-22.1
		c-1.3-2-5.8-5.2-5.8-22.5c0,0,4.7,4.3,5.7,10.5c0,0,1.5-7.4,0.5-9.8c-0.9-2.4-4.4-5.7-4.4-5.7s-1.7-3.9,2.5-2.2
		c4.1,1.7,7.9,8.7,7.9,8.7l0.7,9c0,0,1.1,12.1,4,12.9c0,0,53.2,47.1,54.6,52.1s14.7,12.4,14.7,12.4s1,5.5,2.4,5.6
		c0,0-2.4,9.4-0.4,12.4s8.7,6.3,9.2,6.1s0.1-1.5,0.1-1.5s-6-2.7-7-6.4s-0.2-7.9-0.2-7.9s3,8.6,11.8,9.1
		C360.2,406,367.2,405.7,371,398.6z"/>
	<path class="st2" d="M334.1,458.1l10.7-10c0,0,3.5-3.1,8.4-1.3s14.4,3.2,14.4,3.2s-25.5,25.5-36.4,28s-33.8,3.9-38.6,0
		s1.5-2.1,1.5-2.1s30.4,1.5,40.9-8.3c0,0-29.6,8.5-42.8-0.3c0,0-25.5,2.5-29.4-0.2c-3.8-2.7-6.2-5.8-6.1-6.5c0,0,23.3,4,30.7,0.3
		c7.5-3.7,13.3-4.8,15-4.7s9.8,0.7,9.8,0.7s0.5,4.7-13.7,6.3C298.3,463.3,321.8,469.2,334.1,458.1z"/>
	<path class="st2" d="M242,447.4c0,0,0.7-2.2,2.8-1.2c2.1,1.1,13.7,10.4,41.4,5.4c0,0,3.2-0.3,0.6,2.6s-9.9,7.5-26.3,3.3
		S242,447.4,242,447.4z"/>
	<path class="st2" d="M314,458.5c0,0,4.9,3.8,5.8,3.4s-6.2,2.4-11.1,1.5C308.8,463.3,314.3,460.5,314,458.5z"/>
	<path class="st2" d="M317.8,432.4c13.9-8.7,9.3-14.8,9.3-14.8s-2.8-8.8-15-13.3c-12.3-4.5-9.3-16.7-9.3-16.7s-2.8,1.3-10.5,8.2
		c-7.7,6.8-11.9,1.2-11.9,1.2c-5.9-16.9-18.5-21.5-18.5-21.5c-26.3-8-31.8,15-33.4,17.3c-1.7,2.3,0,29.2,0,29.2
		c4.2,8.7,64.9,25.5,69.7,25.3s12.3,3.6,12.3,3.6s7.2,15.7,17,10.1c9.7-5.6,15.1-16.3,15.1-16.3
		C337.2,436.1,317.8,432.4,317.8,432.4z M304.8,428.7c0,0-0.1-0.1-0.1-0.1l0,0l0,0c-2.6-1.9-4.4-4.7-4.9-7.9c-0.4-2.8,0-5.5,1-8.1
		c0.2-0.8,0.6-1.6,1-2.3c0.5-0.8,1.8,0,1.3,0.8c-0.1,0.2-0.3,0.4-0.4,0.7c0,0,0,0.1,0,0.2c-0.1,0.3-0.3,0.6-0.4,0.9
		c-0.7,2.1-0.4,4.6,0,6.7c0.6,2.8,1.6,5.8,3.5,8C306.2,428.1,305.5,429.2,304.8,428.7z"/>
	<path class="st2" d="M173.3,335.2c0,0-5,25.4-2.1,28.5s53.5,55.6,53.5,55.6s1.1-5.9,0-8s-31.1-46-32.3-47.7
		C191.3,362,173.3,335.2,173.3,335.2z"/>
	<path class="st2" d="M259.1,372.2c0.3,0.2-14.6-2.9-22.9,4.7s-13.1,18.9-11,32.4c0,0-21.2-33.6-21.2-34.5s-30-42.4-30-42.4
		s-5.7-6.8-4.7-16.5s3.6-54.1,1.4-58.9c-2.2-4.8-0.8-27.1-5.8-30.9c0,0,5.2-6.7,11.3,0.5c6.1,7.2,5.6,15.9,5.6,15.9s1.9,9.5,2.5,9.8
		s18.2,49,11.7,65C196.1,317.1,218.6,349.4,259.1,372.2z"/>
	<path class="st2" d="M163.6,223.6c0,0,4.2-5.1,8.9-3.4c4.7,1.7,8,9.2,8,9.2s0.6-15.6,1.2-17.2c0.6-1.6,0.1-21.2-12.2-24.4
		c0,0-11,5.2-17.6-3.8s-17.6-8.6-17.6-8.6l-0.7,1.4C133.6,176.9,164.7,205.6,163.6,223.6z"/>
	<path class="st2" d="M187,255c0,0,7.7,16.1,8.1,25.3c0,0,5,1.9,6.7-4.7s-1.4-10.1-1.4-10.1s-2-4.9,1-9.9s6.3-11.7,5.8-16.8
		c-0.5-5.1-2.9-14.6-7-18.2c0,0-3.1,5.9-7,5.6c0,0,3.3,8.1,0.2,16.1C190.2,250.4,187,255,187,255z"/>
	<path class="st2" d="M191,220c0,0,3.9-1,2-5.8s-4.9-5-4.9-5s-1.2,0.9,0,3.2S191,220,191,220z"/>
	<path class="st2" d="M399,177.3c-19.9-2.8-23.4-21.9-23.4-21.9c-0.5,2.3-6.1,4.5-6.1,4.5c-10.3,3.4-13.9-6.6-13.4-10.8
		c0.8-7.2,8.5-9.5,8.5-9.5c-3.1-5-27.6-11.4-33.1-13.1c-5.5-1.7-34.1-2.2-50.1-1.1c-16,1.1-30.6,11.4-38.5,21.2
		c-7.9,9.8-27.4,19.6-34.9,22.6c-7.4,3-14.9,2.2-22.9-4.4c-8-6.6-20.6-4.3-25.1-2.9s-8.7,11.9-7.7,18.1s7.3,7.4,13.8,6.9
		s7.6-9.8,5.8-13.2c-1.8-3.4-4.7-0.7-3.7-0.1s0.7,5.1,0.7,5.1c-2.9,10.3-12.1,2.6-12.1,2.6s-4.8-11.4,9.2-14.2
		c14.1-2.8,19.4,12.7,19.4,12.7c-4.1,1.1-0.6,5.9-0.6,5.9c-1.9,4.1,2,5.7,2,5.7c-2.1,4.7,3.6,6.8,3.6,6.8
		c-3.4,6.9,2.1,12.3,2.1,12.3s5.2,3.2,1.5,9.1c-3.7,5.9-11.6,1.9-11.6,1.9l1.7,4c11.2,2.5,16.3-6.5,18.8-10.7
		c2.5-4.3,2.5-23.9,2.5-23.9s25.5-20.4,35.6-27s21.1-3.7,32.7-3.8c11.6-0.1,25,7.6,25,7.6s2.3-6.2,3.4-7.6c1.1-1.4,3.3-1.3,4.4-1.2
		s1.5,2.9,1.5,3.6s-2.5,4.7-2.5,4.7l9.5-0.3c0,0,3,1.2,1.9,2.1s-12-0.3-12-0.3l-1.7,2.8l6.1-0.1c0,0,1.8,1.1,1,2.1
		c-0.8,1-7.9-0.3-7.9-0.3l-1.2,2c0,0,7.3-0.8,6.3,0.4c-1,1.2-6.4,1.9-6.4,1.9l-2.5,3.6h11.6l13-5.9c22.8-5.9,27.9,4.9,43,13.6
		s29.8,6,31.6,3.6s-0.6-3.8-0.6-3.8c-15.5,2.9-35.4-18.9-35.4-18.9s32.5,17.7,36.8,14C403.3,179.7,399,177.3,399,177.3z
		 M335.4,156.2c-0.1,0-0.2-0.1-0.3-0.1c-1.4,0.1-2.7-0.5-3.9-1.2c-1.2-0.7-2.4-1.6-3.8-1.5c-1.5,0-2.9,0.1-4.4-0.1
		c-1.5-0.3-2.6-1.1-3.5-2.3c-0.4-0.5,0.3-1.3,0.9-1.1c3,1,6.2,0.4,9.3,1.4c2.2,0.7,3.7,2.7,5.9,3.5c0,0,0,0,0,0
		c0.1,0,0.2,0.1,0.3,0.1C336.7,155,336.3,156.4,335.4,156.2z M338.2,152.7C338.2,152.6,338.2,152.6,338.2,152.7
		c-0.2-0.1-0.3-0.2-0.4-0.3c-2.1-2.2-5-3.9-8-4.6c-5.4-1.3-11.1,0.2-16.6-0.7c-5.1-0.8-9.8-2.8-14.1-5.8c-0.1-0.1-0.2-0.2-0.2-0.3
		c-1.5-0.5-3.1-0.9-4.7-1.1c-2.2-0.2-4.5-0.1-6.6,0c-2.4,0.1-4.8,0.3-7.1,0.9c-0.9,0.2-1.3-1.2-0.4-1.4c2.6-0.7,5.3-0.9,8-1
		c2.5-0.1,5-0.2,7.5,0.2c3.9,0.6,7.5,2.5,11.1,4.1c1.9,0.8,3.9,1.6,5.9,2c2,0.4,3.9,0.3,5.9,0.2c3.8-0.1,7.6-0.2,11.3,0.6
		c3.8,0.9,7.1,2.9,9.5,6C339.9,152.4,338.8,153.4,338.2,152.7z M342.4,149.5c-0.2-0.4-0.4-0.7-0.6-1.1c-5-3.5-8.8-5.2-14.7-6.2
		c-2.9-0.5-7.8,0-10.7-0.1c-2.8-0.1-5.6-0.3-8.4-1c-5-1.2-9.5-4.1-14.5-5.2c-5.5-1.2-11.3-0.1-16.4,2c-4.8,2.1-10,1.6-14.8-0.5l0,0
		l0,0c-0.1,0-0.1-0.1-0.2-0.1c-0.8-0.4-0.2-1.5,0.6-1.4c3.4,0.6,6.9,1,10.3,0.5c3.4-0.4,6.5-2.1,9.8-3c5.7-1.5,11.9-1,17.6,0.3
		c3.1,0.7,6.1,1.7,9.1,2.6c3.1,0.9,6.3,1.3,9.5,1.4c3.1,0.1,6.2,0.2,9.2,0.9c2,0.4,3.9,1.1,5.8,2c3.7,1.7,8.1,4.2,9.8,8.1
		C344.1,149.6,342.8,150.4,342.4,149.5z"/>
	<path class="st2" d="M296.9,170.9l-1.3,3c0,0-3.7-0.4-3.9-1.5C291.6,171.3,296.9,170.9,296.9,170.9z"/>
	<path class="st2" d="M294.3,176.3c0,0-2.4-4.1-9-3c-6.6,1.1-12.3,1.9-12.4,1.4c-0.1-0.5-2.8,3,1,2.6c3.7-0.4,12.3-0.6,13.3,0
		c1,0.6,4.6,2.8,4.6,2.8L294.3,176.3z"/>
	<path class="st2" d="M245.9,165.4c0,0,2.2-3.2,6.1-3.6c0,0,2.1-0.4,2.6-0.7c0.6-0.3-5.5,26.1-8.7,28.3c0,0-2.1-4-5.8-3.4
		C240.1,185.9,247.2,170.5,245.9,165.4z"/>
	<path class="st2" d="M237.4,168.8c0,0,4.9-4.8,6.7-4.1s-5.2,20.4-5.2,20.4s-4.1,0.1-4.3-0.8C234.5,183.3,239.3,172.4,237.4,168.8z"
		/>
	<path class="st2" d="M229.1,175.2c0,0,5.4-5.4,6.2-5c0.8,0.4,1,9.7-2.1,14.2h-4.7C228.6,184.4,230.8,176.8,229.1,175.2z"/>
	<path class="st2" d="M222.8,178.8c0.4-0.1,3.3-3.3,4.3-3.5s2.1,3.6,0,8.6l-3.7,1.3L222.8,178.8z"/>
	<path class="st2" d="M216.1,184.4l5.4-5.2C221.5,179.2,224.8,186.5,216.1,184.4z"/>
	<path class="st2" d="M239.5,144.7l-9.7-8.8c0,0-4.2-2.5-4.3,3.2l11.3,8.7L239.5,144.7z"/>
	<path class="st2" d="M230.2,154.1l-11.9-7.2c0,0,0.1-4.7,2.9-3.9s10.1,6.8,10.1,6.8l-9.2-8.6c0,0-0.4-1.7,1.4-1.9
		c1.9-0.3,12.2,8.4,12.2,8.4S236.3,150.5,230.2,154.1z"/>
	<path class="st2" d="M228.2,154.1c0,0-9.4-5.4-11-5.1s-2.9,2.5-2.1,4c0.8,1.4,8,2.8,8.7,4.9C223.9,157.8,226.9,157.7,228.2,154.1z"
		/>
	<path class="st2" d="M222.1,158.9c0,0-5.7-4.1-7.2-4.1s-3.1,3.9-2.5,4.1c0.7,0.3,4.5,2.3,4.8,2.9
		C217.5,162.3,221,160.8,222.1,158.9z"/>
	<path class="st2" d="M216.1,163.4c0,0-1.8-3-3.8-2.4c-2.1,0.7-2.5,5.9-2.5,5.9L216.1,163.4z"/>
	<path class="st2" d="M342.3,176.6c0,0-9.9,10-12.4,11.7s-2.8,6.9-33.1,5.7c-30.3-1.2-0.6,0.2-0.6,0.2s7.3-2.5,7.6-4.7
		c0,0,16.7-0.8,18.2-3.2c0,0-14.9,2.2-16.1,1.2s0.7-3,0.7-3s13.8,0.1,16-3c0,0-12.3,2.2-14.6,1.7s-0.3-1.1-0.3-1.1
		s10.5-0.7,13.7-4.7C324.5,173.4,343.3,173.6,342.3,176.6z"/>
	<path class="st2" d="M359.6,133.9c0,0-10.5-19.4-8.8-27.4c0,0-4,5.4-10.5,3.3c0,0,5,16.1,4.7,17C345,126.8,357.9,129.9,359.6,133.9
		z"/>
	<path class="st2" d="M329.1,109.7c0,0,6.9-0.6,8.1,1c1.2,1.5,4.8,9.1,5.1,15.2c0,0-6-1.4-9.7-1
		C332.7,124.8,332.3,112.6,329.1,109.7z"/>
	<path class="st2" d="M319.4,108.6c0,0,7.5-0.8,7.8,1c0.3,1.8,3.9,13.2,3.3,14.4c0,0-5.7-1.7-7.5-0.8
		C323,123.2,322.3,110.6,319.4,108.6z"/>
	<path class="st2" d="M321.1,122.5c0,0-5.5,0.6-5.8,0c-0.3-0.6-5.8-12.9-5.8-12.9s1.9-1.9,2.8-1.2s4.8,2.2,5.9,1.2
		C318.2,109.6,321.5,113.9,321.1,122.5z"/>
	<path class="st2" d="M312.1,121.7c0,0-3.6-10.3-3.9-12.1c-0.3-1.8-2.6,1.5-2.6,1.5s-4.7-0.1-5.7-2c0,0,2.5,10.3,6.6,12.7
		C310.8,124,312.1,121.7,312.1,121.7z"/>
	<path class="st2" d="M302.7,121.2l-5.9-13c0,0,0.4,6.1-7.5,3.3c0,0,3.1,7.9,4.9,9.7C296.1,123,302.7,121.2,302.7,121.2z"/>
	<path class="st2" d="M291.7,121.2l-4.6-7c0,0-5.5,4.6-7.6,3.5l3.5,4.3C283,122,290.4,122.9,291.7,121.2z"/>
	<path class="st2" d="M280.8,122.7l-5.1-5.1c0,0-3.9,7.4-10.3,5.1c0,0,1.1,2.9,2.3,3.1S276.4,121.9,280.8,122.7z"/>
	<path class="st2" d="M375,150.1c-1.2-9.6-9.5-9.2-9.5-9.2s-6.5,0.1-7.7,8.6s6.9,9.4,6.9,9.4S376.2,159.7,375,150.1z M369,154.3
		c-1.4,0.5-3,0.6-4.4,0.2s-2.4-1.4-2.8-2.8c-0.3-1.1-0.3-2.4,0-3.6c0-0.3,0-0.6,0.1-0.9c0.4-1.3,1.5-2.1,2.8-2.6c0.1,0,0.3,0,0.4,0
		c0.1,0,0.2,0,0.4,0c1,0,1,1.5,0,1.5c-0.1,0-0.2,0-0.3,0c0,0-0.1,0-0.1,0c-0.1,0-0.2,0.1-0.3,0.1c0,0,0,0,0,0c0,0,0,0,0,0
		c-0.4,0.2-0.4,0.2-0.6,0.5c-0.1,0.2-0.3,0.4-0.5,0.7c-0.1,0.2-0.2,0.5-0.3,0.8c0,0.1,0,0.1,0,0.1c0,0,0,0.1,0,0.1
		c0,0.1,0,0.1,0,0.1c0,0.1,0.1,0.2,0.1,0.3c0,0.1,0,0.1,0.1,0.2c0,0,0,0,0,0l0,0c0,0.1,0.1,0.2,0.1,0.3c0.1,0.2,0.2,0.4,0.4,0.6
		c0,0.1,0.1,0.1,0.1,0.2c0,0,0,0,0,0.1c0.1,0.1,0.1,0.2,0.2,0.3c0.2,0.2,0.4,0.4,0.6,0.6c0.1,0.1,0.2,0.1,0.3,0.2
		c0,0,0.1,0.1,0.1,0.1c0,0,0.1,0.1,0.1,0.1c0.2,0.1,0.4,0.3,0.6,0.4c0.1,0.1,0.2,0.1,0.4,0.2l0,0c0,0,0,0,0,0c0.1,0,0.1,0.1,0.2,0.1
		c0.2,0.1,0.5,0.1,0.7,0.2c0,0,0,0,0,0c0.1,0,0.1,0,0.2,0c0.1,0,0.2,0,0.3,0c0.1,0,0.1,0,0.2,0c0,0,0,0,0,0c0.1,0,0.2,0,0.3-0.1
		c0,0,0.2-0.1,0.2-0.1c0.1,0,0.2-0.1,0.3-0.1c0,0,0.1-0.1,0.2-0.1c0,0,0,0,0,0c0.1-0.1,0.2-0.1,0.3-0.2c0.1-0.1,0.1-0.1,0.2-0.2
		c0,0,0,0,0,0l0,0c0.1-0.1,0.2-0.2,0.2-0.4c0.2-0.3,0.3-0.5,0.4-0.8c0.3-0.8,1.4-0.6,1.5,0.2C371.9,152.4,370.6,153.7,369,154.3z"/>
	<circle class="st2" cx="408.5" cy="181.7" r="1.8"/>
	<circle class="st2" cx="414.7" cy="190.6" r="2.7"/>
	<path class="st2" d="M412.7,197.1c-4.4,0-8,3.8-8,8.6s3.6,8.6,8,8.6s8-3.8,8-8.6S417.1,197.1,412.7,197.1z M416.5,207.6
		c-0.1,0.2-0.2,0.3-0.3,0.4c-0.1,0.7-0.4,1.4-1,1.9c-0.7,0.6-1.5,0.8-2.4,0.7c-2-0.2-4.1-1.6-4.3-3.8c-0.1-1.6,0.9-3.3,2.3-4.2
		c0.6-0.4,1.3-0.7,2-0.6c0.3,0,0.6,0.1,0.9,0.3c0.2,0,0.5,0,0.7,0.1c0.7,0.1,1.3,0.6,1.7,1.2C416.9,204.7,417,206.4,416.5,207.6z"/>
	<path class="st2" d="M398.2,207c-3.1,0-5.7,2.4-5.7,5.2c0,2.9,2.5,5.2,5.7,5.2c3.1,0,5.7-2.4,5.7-5.2
		C403.9,209.4,401.3,207,398.2,207z M401,212.7c-0.1,0.5-0.4,0.9-0.7,1.3c-0.2,0.3-0.5,0.5-0.8,0.6c-0.6,0.3-1.3,0.3-2,0.1
		c-1.2-0.5-2.2-1.6-2.3-2.9c-0.1-0.6,0.2-1.3,0.7-1.7c0.7-0.6,1.6-0.7,2.5-0.7c0.2,0,0.3,0.1,0.5,0.2c0.2,0,0.3,0,0.5,0.1
		c0.6,0.2,1.1,0.6,1.4,1.1C401,211.4,401.1,212.1,401,212.7z"/>
	<path class="st2" d="M385.3,213c-2.9,0-5.2,2.1-5.2,4.7s2.3,4.7,5.2,4.7c2.9,0,5.2-2.1,5.2-4.7S388.2,213,385.3,213z M386.6,219.3
		c-0.1,0.1-0.1,0.1-0.2,0.1c0,0-0.1,0-0.1,0.1c0,0,0,0,0,0c0,0-0.3,0.1-0.1,0.1c0.1-0.1,0,0,0,0c-0.1,0-0.1,0.1-0.2,0.1
		c0,0-0.1,0-0.1,0c-0.1,0-0.1,0-0.2,0.1c-0.4,0.1-0.8,0.1-1.2,0c-0.7-0.1-1.5-0.6-1.8-1.2c-0.4-0.8-0.2-1.9,0.5-2.4
		c0.7-0.5,1.5-0.6,2.3-0.5c0.5,0.1,1,0.3,1.3,0.6c0.1,0.1,0.2,0.1,0.4,0.2c0.3,0.3,0.4,0.6,0.5,1
		C387.6,218.2,387.1,218.9,386.6,219.3z"/>
	<path class="st2" d="M396.5,219.4c-1.8,0-3.2,1.4-3.2,3.2s1.4,3.2,3.2,3.2s3.2-1.4,3.2-3.2S398.2,219.4,396.5,219.4z M397.5,222.8
		c0,0.1,0,0.1,0,0.1c0,0.1,0,0.3-0.1,0.4c0,0.1-0.1,0.3-0.1,0.4c-0.2,0.3-0.5,0.4-0.8,0.4c0,0-0.2,0-0.2,0c-0.1,0-0.1-0.1-0.2-0.1
		c0,0-0.1-0.1-0.1-0.1c-0.1-0.1-0.2-0.2-0.3-0.3c-0.1-0.1-0.1-0.1-0.2-0.2c-0.1-0.1-0.1-0.1-0.2-0.2c0-0.1,0-0.1,0-0.2
		c0-0.1,0-0.2,0-0.3c0-0.1,0-0.1,0.1-0.2c0.1-0.1,0.1-0.2,0.2-0.3c0,0,0,0,0,0c0.1-0.1,0.1-0.1,0.2-0.1c0,0,0,0,0,0
		c0.1,0,0.1-0.1,0.2-0.1c0,0,0,0,0,0c0.1,0,0.1,0,0.2,0c0,0,0,0,0,0c0,0,0,0,0,0c0,0,0.1-0.1,0.1-0.1c0.1-0.1,0.2-0.1,0.4-0.1
		c0.1,0,0.1,0,0.2,0c0.1,0,0.2,0.1,0.3,0.1c0.1,0.1,0.1,0.1,0.2,0.2c0,0.1,0.1,0.2,0.1,0.3C397.6,222.6,397.6,222.7,397.5,222.8z"/>
</g>
<g id="Layer_4">
	<polygon class="st2" points="63,176.6 106.6,195.9 72.1,159.3 80.8,146.7 127.4,162.8 92,130.2 102.6,118.2 147.4,158.3 
		130.2,180.1 99.9,168.8 122.5,191.4 110.8,215.3 56,192.8 	"/>
	<polygon class="st2" points="142.2,80.8 111.2,108.2 152.3,152.4 183,125.8 172.7,114.2 154.3,129.5 147.1,121.7 165.5,105.9 
		156.3,96 138.2,111.9 132.4,105.7 152.3,90.1 	"/>
	<path class="st2" d="M168.6,64l-15,9.2l33.7,50.2c0,0,29-18.3,33.8-19.4l-8-16.1l-21.4,11L168.6,64z"/>
	<polygon class="st2" points="202.8,46.2 219,40.3 233.2,80.8 259.3,73.5 262.5,91.2 224.1,102.5 	"/>
	<polygon class="st2" points="256.3,30.8 275.2,29 281.9,88 265.4,91.4 	"/>
	<polygon class="st2" points="286.3,87.6 288.1,26.9 316.4,26.9 330.5,72.6 333.5,29.9 349.9,31.2 345.9,91.4 320.4,90.1 
		303.5,43.3 303.7,88 	"/>
	<path class="st2" d="M407.3,64c0,0,8.1-12.5-1.1-19.2c-9.2-6.6-26.6-10.1-26.6-10.1s-11.3-5.7-19,11.2l-8.1,28.4
		c0,0-6.2,17,11.9,21.9l13.1,5.4c0,0,15.9,5.4,21.1-4.8c5.2-10.2,9.8-24,9.8-24L383,63l-4.4,10.5l9.8,3.7c0,0-0.1,9.2-4.4,9.2
		s-17.6-6.1-17.6-6.1l9.9-28c0,0,1.5-3.3,4.7-2.5s9.6,3,9.6,3s3.9,1.8,2.9,5.5L407.3,64z"/>
	<polygon class="st2" points="410.6,65.1 417.9,52 458.1,77 450.1,89.8 437.8,81.5 413.9,120.2 399.9,110.3 423.3,73.2 	"/>
	<path class="st2" d="M495.3,109.1l-10.5-9.9c0,0-17-20.8-31.7-4c-14.8,16.8-16,17.7-16,17.7s-12.1,10.3-1.4,22.5
		s13.7,14.4,13.7,14.4s10.5,15,26.9-1.1C492.7,132.4,504.4,122.5,495.3,109.1z M476.4,126.6c-2,2.1-4.1,4-6.3,5.9
		c-1.8,1.6-3.5,3.5-5.5,4.9c-1.6,1.1-2.2,1.2-4,0.4c-2.2-1.1-4.9-2.9-6.3-4.8c-0.2-0.2-0.4-0.4-0.5-0.7c-0.3-0.3-0.7-0.6-1-0.9
		c-0.8-0.7-1.6-1.5-2.3-2.4c-0.1,0-0.3,0.1-0.4-0.1c-4.9-5.8,5.2-13.4,8-15.9c2.7-2.4,3-4.5,6-6.6c1.6-1.2,3.4-1.5,5.2-0.7
		c1.8,0.9,3.2,2.5,4.7,3.8c2.8,2.4,6.2,4.9,7.7,7.7C482.8,119.3,478.8,124.2,476.4,126.6z"/>
	<polygon class="st2" points="464.1,163.9 514.2,130.6 528.4,152.6 500.3,189.9 536.8,167.4 546.1,182.9 494.6,214.2 481.9,191.3 
		507.7,153.2 472.7,176.6 	"/>
	<path class="st2" d="M566.8,255.9c0,0-1.1-21.9-19-19c-17.9,2.9-15.6,10.3-15.6,10.3s-4-8.8-13.7-6.8c-9.7,2.1-13,6.9-13.4,13.2
		s4,36.4,4,36.4l60.1-4.2L566.8,255.9z M530.3,273c-2.4,1.3-5.3,0.5-7.8,0.9c-0.8,0.1-1.7-0.2-1.9-1.1c-0.1-0.3,0-0.7,0.1-1.1
		c-0.2-0.6-0.3-1.2-0.4-1.8c-0.1-0.9,0-1.9-0.2-2.8c-0.2-1.6-0.6-3.2-0.6-4.9c0-2.1,0.3-4.6,1.6-6.3c1.4-2,4.2-2.8,6.3-1.6
		c1.9,1,2.6,3.4,3,5.4c0.3,2.1,0.4,4.2,0.5,6.4c0.1,1.5,0.3,2.9,0.3,4.3C531.3,271.5,531.3,272.4,530.3,273z M554.4,268.8
		c-0.7,2-2.2,2.9-4.2,3c-1.1,0-2.3,0-3.4,0c-1.2,0.1-2.4,0.1-3.7,0.1c-0.9,0.7-2.6,0.3-2.5-1.2c0.3-5.2-0.8-10.5-0.2-15.7
		c0.2-1.6,0.6-3.3,1.9-4.4c1.4-1.3,3.5-1.6,5.3-1.4c4.1,0.5,5.3,4.1,6,7.7c0.4,2,0.8,4,1,6C554.9,264.8,555,266.9,554.4,268.8z"/>
	<path class="st2" d="M511,292.8v14.7l31.6,3.8c0,0,11.2,0.5,9,10.2c-2.2,9.7-8.4,8.7-15,8.1c-6.6-0.5-29.4-2.5-29.4-2.5l-2.1,16
		l39.2,5.4c0,0,18.1,4.4,22.8-18.9s-6.3-29.7-6.3-29.7S558.3,296.2,511,292.8z"/>
	<polygon class="st2" points="493.9,376.4 499.5,361.9 539.5,374.7 545.5,352.4 561.5,357.1 549.5,395.6 	"/>
	<path class="st2" d="M507.5,388.8l-6.4,15.2c0,0-6.3-4.8-10.2,1.4c-3.9,6.2-1.7,9.9,2.2,11.6s15.5,9,15.5,9s5.8,3.7,9.4-2.6
		c3.6-6.3,6.2-10.1-1.5-14.3l5.9-13.4c0,0,26.6,7.3,10.5,34.9s-37.7,7.6-37.7,7.6s-34.6-11.8-16.4-40.7
		C478.8,397.4,487.5,377.9,507.5,388.8z"/>
	<path class="st2" d="M474.2,480.4c-5.7-6.6-11.6-4-11.6-4c3.9-8.8-1.4-12.9-1.4-12.9s-4.4-4.9-9.5-9.3c-5.1-4.4-12.8-0.8-12.8-0.8
		l-28.1,20.8l34.1,46.1l14.1-10.2L448.8,497c0,0,6.2-4.7,8.7-6.8s5.2,0.3,5.2,0.3l8.8,9.8l11.7-10.2
		C483.3,490.1,479.9,487,474.2,480.4z M451.8,474.9c-0.3,1.8-1.7,3.3-3,4.5c-1.5,1.4-3.1,2.6-4.8,3.7c-1.3,0.8-3,2.1-4.7,1.7
		c-1.4-0.4-2.2-1.9-3-3c-1.1-1.5-2.6-2.8-4-4c-0.7-0.5-0.5-1.7,0-2.2c0.1-0.1,0.3-0.2,0.5-0.3c0.1-0.1,0.3-0.3,0.4-0.4
		c1.7-1,3.2-2.2,4.6-3.5c1.4-1.3,2.6-2.8,4.1-3.9c1.2-0.9,2.6-1.4,4.1-0.8c1.7,0.7,3.1,2.3,4.2,3.6
		C451.3,471.7,452.1,473.2,451.8,474.9z"/>
	<polygon class="st2" points="371.3,492.4 406.5,477.2 412.1,489.4 391,498.9 394.1,507 413.4,499 418.6,509.5 399.2,518.2 
		402.8,526.8 423.5,517 430.2,529.2 393.2,545.7 	"/>
	<polygon class="st2" points="323.2,502.9 368.8,493.8 371.3,509.1 356.8,511.5 366.9,553.7 348.4,556.8 340.4,514.3 325.9,517.1 	
		"/>
	<path class="st2" d="M315.3,504.4l-25.4-0.5l-14.3,55.9l17.9,0.7l3.7-10.8h16.3l5.8,10.8l15.6-0.7L315.3,504.4z M310.9,538
		c-0.4,0-0.7-0.1-0.9-0.3h-11.8c0,0,0,0-0.1,0c0,0,0,0-0.1,0c-1,0-1.5-0.8-1.5-1.7c-0.1-0.3-0.1-0.6,0-0.9c1.3-3.2,1.5-6.7,2.2-10
		c0.8-3.7,2-7.3,2.9-10.9c0-0.4,0.2-0.7,0.4-1c0,0,0,0,0,0c0,0,0,0,0,0c0.3-0.3,0.6-0.4,1.1-0.4s0.8,0.2,1.1,0.4c0,0,0,0,0,0
		c0,0,0,0,0,0c0.3,0.3,0.4,0.6,0.4,1.1v0.6c3,6.3,4.8,13,6.8,19.7c0.6,0.3,0.9,0.9,0.9,1.6C312.5,537.1,312,538,310.9,538z"/>
	<polygon class="st2" points="202.5,479.2 218.6,486.9 214.1,526.6 233.8,492.1 251.4,498.1 247.4,539.6 269.2,500.8 286.9,503.9 
		254.2,558.2 231,551.9 234.9,517 217.5,548.4 195,539.7 	"/>
	<path class="st2" d="M191,471l-27.2-19.2l-34.5,46.1l14.1,11c0,0,5.2-9.1,8.6-13s4.7-1.5,10.3,2.2c5.7,3.7,1.5,9.1,1.5,9.1
		l-7.5,9.8l14.1,9.5c0,0,6.9-6.5,9.4-12.5c3.9-9.4-1-13.7-1-13.7s9.1,6.8,16.3-7.2C203.4,477.1,191,471,191,471z M180.3,483.8
		c-1.3,3.2-4.8,5.7-8.3,5.1c-0.6,0.2-1.3,0.1-1.7-0.4c-0.6-0.6-1.2-1.1-1.8-1.7c-0.3-0.3-0.7-0.6-1-0.9c-0.2-0.1-0.4-0.3-0.5-0.4
		c0,0-0.1-0.1-0.2-0.1s-0.1-0.1-0.2-0.1c-1.4-1-2.8-2-4.4-2.8c-0.8-0.4-0.9-1.5-0.6-2.1c0.1-0.2,0.3-0.4,0.4-0.5
		c0.8-1.5,1.9-2.8,3-4c0.6-0.7,1.2-1.4,1.8-2.1c0.1-0.2,0.3-0.3,0.4-0.5c0.1-0.1,0.1-0.2,0.2-0.3c0,0,0.1-0.1,0.1-0.2
		c0,0,0.1-0.2,0.1-0.2c0.1-0.1,0.1-0.1,0.2-0.2c0.1-0.2,0.3-0.4,0.4-0.6c0.5-0.7,1.4-1,2.1-0.6c0.3,0.2,0.6,0.5,0.7,0.9
		c0,0,0.1,0,0.1,0c1.6,0.9,3.2,1.8,4.7,2.8c1.4,1,2.9,2.1,3.9,3.6C180.8,480.3,180.9,482.2,180.3,483.8z"/>
	<polygon class="st2" points="88.6,454.2 133.2,416.5 159.9,447 150.2,456.7 132.6,436.6 126.8,442.6 142.8,459.2 133.9,467.5 
		117.8,449.8 111.2,455.8 128.7,474.9 116.8,486.5 	"/>
	<path class="st2" d="M124.8,403L108,371.5l-52,25.2c0,0,4.8,14.2,14.8,30.1s23.7,8.4,23.7,8.4s21.8-11.2,27.6-16.5
		C127.9,413.2,124.8,403,124.8,403z M104.9,413.6c-2.7,1.8-5.6,3.2-8.6,4.3c-2.5,1-5.6,2.2-8.3,2c-2.4-0.2-4.1-1.6-5.4-3.5
		c-1.9-2.8-3.6-5.8-5-8.8c-0.2-0.4-0.2-0.8-0.1-1.1c-0.7-0.8-0.7-2.3,0.6-2.6c3.8-0.9,7.2-2.8,10.7-4.6c3.1-1.6,6.4-3.1,9.2-5.2
		c0.8-0.7,1.9-1.6,3.1-1.6c1.1,0,1.8,0.9,2.3,1.7c1.3,1.9,2.4,3.9,3.5,5.9c1.2,2.2,2.3,4.7,2.2,7.3
		C108.8,410.3,107.2,412.1,104.9,413.6z"/>
	<path class="st2" d="M36.8,319.3c0,0,57.2-6.8,58.2-7.7l4.3,27.5l-42.5,22.8c0,0,43-7.5,44-8.1s5.8,13.9,5.8,13.9l-57,10.6l-8.1-28
		l46.9-20.8l-49.7,5.9L36.8,319.3z"/>
	<path class="st2" d="M95.4,272.3l-36.1-1.8c0,0-7.7-2.1-7.5,5.9c0.3,8,0.3,8,0.3,8s-1.5,4,4.5,4.1s38.8,1.8,38.8,1.8v18.5
		l-48.7-4.7c0,0-10.1-2.9-10.3-14.6c-0.3-11.7,0.4-23.9,0.4-23.9s0.8-11.9,14.6-12.1s46.2,3,46.2,3L95.4,272.3z"/>
</g>
</svg>
